<?xml version="1.0" encoding="utf-8"?>
<!-- Generator: Adobe Illustrator 27.2.0, SVG Export Plug-In . SVG Version: 6.00 Build 0)  -->
<svg version="1.1" xmlns="http://www.w3.org/2000/svg" xmlns:xlink="http://www.w3.org/1999/xlink" x="0px" y="0px"
	 viewBox="0 0 1378.9 1000" style="enable-background:new 0 0 1378.9 1000;" xml:space="preserve">
<style type="text/css">
	.st0{fill:#E0C7A4;}
	.st1{fill:#FFFFFF;}
	.st2{fill:#B29D84;}
	.st3{display:none;}
	.st4{display:inline;fill:#D1E7D2;}
	.st5{fill:#E3E3E3;}
	.st6{fill:#EFE7E7;}
	.st7{fill:#D1E7D2;}
	.st8{fill:#1C632A;}
	.st9{fill:#F1E6E6;}
	.st10{fill:#E8E8E8;}
	.st11{fill:#535050;}
	.st12{fill:#4F2D01;}
</style>
<g id="Livello_2">
	<path class="st0" d="M394.5,706.9c-11.2,30.3-29.6,30.3-40.9,0l-71.3-192.1l-79.5-214.1c-5.4-14.7,1.4-33,12.3-33h158.9h158.9
		c10.9,0,17.7,18.3,12.3,33l-79.5,214.1L394.5,706.9z"/>
	<circle class="st1" cx="301.1" cy="396.4" r="28.7"/>
	<circle class="st1" cx="446.8" cy="396.4" r="28.7"/>
	<circle class="st2" cx="446.8" cy="396.4" r="10"/>
	<circle class="st2" cx="301.1" cy="396.4" r="10"/>
</g>
<g id="Livello_3" class="st3">
	<circle class="st4" cx="374.1" cy="282.6" r="173.1"/>
</g>
<g id="Livello_1">
	
		<g id="_x34_cDhEr44wFoJ4M27jauvQ_00000012473185629766656060000008864424987765039259_" transform="matrix(0.5389934646 0 0 0.6582997706 661.2853094919 493.1658085386)">
		<path vector-effect="non-scaling-stroke" class="st5" d="M61.2,332.5c-11.4,0-22.1-4.7-28.5-12.4c-6.4-7.8-7.6-17.6-3.4-26.3
			l243.4-492.2l0,0c3.4-7,11.9-11.4,21.1-10.9c9.2,0.4,17,5.6,19.4,12.8l169.6,503.2l0,0c2.1,6.2,0.5,12.7-4.2,17.8
			c-4.7,5.1-12.1,8.1-19.9,8.1H61.2z"/>
	</g>
	
		<g id="klAktAKFiy4HySYR9OF_2_00000054238293896011589190000006077939458540742807_" transform="matrix(-1 0 0 1 535.2130604867 449.4253759964)">
		<path vector-effect="non-scaling-stroke" class="st6" d="M-260.1,262.8c-7.8,0-15.1-3.7-19.8-9.9c-4.7-6.2-6.1-14.3-3.9-21.8
			l119-402.6l0,0c1.8-6,7.2-10.2,13.5-10.4c6.3-0.2,12,3.7,14.1,9.6L8.2,231.1l0,0c2.6,7.3,1.5,15.3-2.9,21.6
			c-4.4,6.3-11.7,10.1-19.4,10.1H-260.1z"/>
	</g>
	
		<g id="hm3ZvjApluI-r_xpGG-i3_00000165943897067810188890000013051409447120291981_" transform="matrix(1.1787485093 0 0 1.1787485093 452.9523518196 474.6079183875)">
		<path vector-effect="non-scaling-stroke" class="st7" d="M141,155.4H29.8l0,0c-6.2,0-12-3.2-15.2-8.5S11.1,135,14,129.5
			L119.3-79.2l0,0c2.4-4.8,7.5-7.7,12.9-7.4c5.4,0.3,10.1,3.8,12,8.9l76.1,207l0,0c2.2,6,1.3,12.7-2.3,17.9c-3.6,5.2-9.6,8.3-16,8.3
			H141z"/>
	</g>
	<g>
		
			<g id="QkZXAbXKG37TpPgdx50Hx_00000102518313812010295740000001743356359378229383_" transform="matrix(1.0738818431 0 0 1.0419331392 405.0144650218 473.8111511728)">
			<g vector-effect="non-scaling-stroke">
				<g>
					<path class="st8" d="M201.8-77.2L89.7,147.9h57.9c4.3-0.1,8.4,1.8,11,5.4c2.1,2.9,3,6.4,2.6,9.9c0,3.5-1.4,6.9-3.9,9.4
						c-2.5,2.6-5.9,4-9.3,4c-0.4,0-0.9,0-1.3-0.1H66c-4.5,0-8.8-2.5-11.2-6.4c-2.4-4-2.6-9-0.5-13.2L176.6-91.4
						c1.9-3.8,5.3-6.5,9.3-7.3c4.1-0.8,8.2,0.3,11.3,3.1l1.2,1.1C203.4-90.2,204.7-83,201.8-77.2z"/>
				</g>
			</g>
		</g>
		
			<g id="YamhDdZUSblb-rogGXkxS_00000137818444282614133020000000132584062326440861_" transform="matrix(0.8486146264 0 0 1.0419331392 538.4602731374 602.3054912448)">
			<g vector-effect="non-scaling-stroke">
				<g>
					<path class="st8" d="M212.1,38.6v0.6c0,7.7-7.7,14-17.3,14h-65.3c-0.3,0-0.6,0-0.9,0c-5.8,0-11.2-2.5-14.3-6.7
						c-1.9-2.7-2.6-5.7-2.1-8.7c0-3.5,1.7-7,4.8-9.6c3.7-3,9-4.4,14-3.8h63.8C204.4,24.6,212.1,30.9,212.1,38.6z"/>
				</g>
			</g>
		</g>
	</g>
	
		<g id="j2t3ihhweDU7GsRSbtTTS_00000125591455123571394630000018154250410327521161_" transform="matrix(0.0490076584 0 0 44.0768774716 468.190549598 646.7534565477)">
		<g vector-effect="non-scaling-stroke">
			<g>
				<path class="st8" d="M3097.8-1.4v4.6c0,0.2-134.1,0.3-298.5,0.3c-155.9,0-282.6-0.1-282.6-0.3v-4.6c0-0.2,134.1-0.3,298.7-0.3
					C2971.1-1.7,3097.8-1.6,3097.8-1.4z"/>
			</g>
		</g>
	</g>
	
		<g id="AcfrPYwyraU3J18xnWnDG_00000175301179250387347670000008906074137935710126_" transform="matrix(0.5505117024 0 0 0.6723675725 781.1325390065 525.0454414503)">
		<path vector-effect="non-scaling-stroke" class="st9" d="M57.3,278.3c-11.3,0-21.9-4.6-28.2-12.4c-6.2-7.8-7.2-17.6-2.6-26.1
			l206.6-385l0,0c4.2-7.8,13.7-12.8,24.1-12.6c10.4,0.1,19.7,5.4,23.5,13.3l193.8,396.1l0,0c2.9,5.8,2,12.4-2.3,17.6
			c-4.3,5.2-11.4,8.3-19.1,8.3L57.3,278.3z"/>
	</g>
	
		<g id="Bf-o64XSECq5JXGjRT0TT_00000039106271097587598270000016133293086359048328_" transform="matrix(1 0 0 1.0035172543 911.8149155656 452.518827716)">
		<path vector-effect="non-scaling-stroke" class="st10" d="M21.5,258.2c-7.7,0-15-3.7-19.5-10s-5.7-14.3-3.2-21.6l134.6-394.5l0,0
			c2-5.9,7.6-9.8,13.8-9.6c6.2,0.1,11.6,4.3,13.4,10.2l116,394l0,0c2.2,7.4,0.7,15.5-3.9,21.7s-12,9.9-19.8,9.9H21.5z"/>
	</g>
	
		<g id="e-9FLjYJ3Zq-WTkf9IOKK_00000167380649138727572410000013111198645921877890_" transform="matrix(1.209156954 0 0 1.6482861039 802.4059925101 451.2456334212)">
		<g vector-effect="non-scaling-stroke">
			<g>
				<path class="st11" d="M222.5-99.9c0,1-0.2,2.1-0.7,3L215-82.3L108.1,152.4c-1.5,3.3-5.7,5.6-10.5,5.6h-0.3
					c-4.9-0.1-9-2.5-10.4-5.9L5.5-50.8c-0.3-0.8-0.4-1.5-0.4-2.3c0-1.9,0.8-3.7,2.4-5.2c2.2-2.1,5.6-3.4,9.2-3.4
					c5.4,0,10.3,2.7,11.8,6.5L98.9,121l101.2-224.1c1.4-3.2,5.3-5.4,9.8-5.7c4.5-0.3,8.8,1.4,10.9,4.3l0.1,0.2
					C222-102.9,222.5-101.4,222.5-99.9z"/>
			</g>
		</g>
	</g>
	
		<g id="zidWuSjRXGoTEyEe0_pGW_00000047777883828860603500000002241213974215768960_" transform="matrix(-1.209156954 0 0 1.6482861039 628.9735774999 449.1650694295)">
		<g vector-effect="non-scaling-stroke">
			<g>
				<path class="st11" d="M-192.8,94.3c0,1.1,0.3,2.2,0.8,3.2l0.1,0.2l33,56.8c1.8,2.9,5.8,4.8,10.2,4.8c0.2,0,0.4,0,0.5,0l0.2,0
					c4.6-0.2,8.5-2.5,9.9-5.7l0-0.1L-35.2-98.8c0.3-0.8,0.4-1.5,0.4-2.3c0-3-2.2-5.8-5.8-7.3l-1.4-0.6c-3.1-1.3-6.8-1.4-10-0.5
					c-3.3,1-5.8,3-6.9,5.5l-91.7,225.7l-20-32.2l-0.4-0.4c-3.3-3.8-10-5.1-15.3-2.8l-0.7,0.3l-1.9,1.2
					C-191.3,89.4-192.8,91.8-192.8,94.3z"/>
			</g>
		</g>
	</g>
	
		<g id="fX9kcPu9OR95ALecgd5L8_00000083064361280678612830000007434579841485422996_" transform="matrix(-1.209156954 0 0 1.7779649433 776.2898987584 412.4026758474)">
		<g vector-effect="non-scaling-stroke">
			<g>
				<path class="st11" d="M-131.9,14.5l14.6,23.7c1.7,2.8,5.7,4.6,10.1,4.7h0.4c4.3,0,8.2-1.7,10.2-4.3l0.7-0.9
					c1.7-2.2,1.8-4.9,0.3-7.2l-14.5-23.2c-1.4-2.2-4.2-3.8-7.6-4.4c-3.4-0.6-7,0-9.7,1.5l-1,0.6C-132.6,7.3-134,11.1-131.9,14.5z"/>
			</g>
		</g>
	</g>
	<g>
		<g>
			<path class="st12" d="M547.2,282.3v0.6c0,8.1-6.6,14.6-14.6,14.6h-317c-3.9,0-7.6-1.5-10.3-4.3l-0.1-0.1
				c-2.7-2.8-4.2-6.4-4.2-10.2v-0.6c0-3.8,1.5-7.5,4.2-10.2l0.1-0.1c2.8-2.8,6.4-4.3,10.3-4.3h317c3.9,0,7.6,1.5,10.3,4.3l0.1,0.1
				C545.7,274.9,547.2,278.5,547.2,282.3z"/>
		</g>
		
			<g id="_x35_MbZtBDQUHus31em4BeBc_00000047056427967035849270000010722425232358710923_" transform="matrix(0.0490076584 0 0 80.8198049364 244.6335026181 486.6099216258)">
			<g vector-effect="non-scaling-stroke">
				<g>
					<path class="st12" d="M2932.4-1.8v4.7c0,0.1-133.9,0.2-298.5,0.2c-155.7,0-282.4-0.1-282.4-0.2v-4.7c0-0.1,133.9-0.2,298.5-0.2
						C2805.7-2,2932.4-1.9,2932.4-1.8z"/>
				</g>
			</g>
		</g>
	</g>
</g>
</svg>
